<svg xmlns="http://www.w3.org/2000/svg" viewBox="0 0 22.33 22.33"><defs><style>.cls-1{fill:#fff;}.cls-2{fill:#6b6b6b;}</style></defs><title>Email</title><g id="Layer_2" data-name="Layer 2"><g id="Pin"><circle class="cls-1" cx="11.17" cy="11.17" r="11.17" transform="translate(-1.63 20.41) rotate(-80.84)"/><path class="cls-2" d="M19.56,5.7A.55.55,0,0,0,19,5.15H3.33a.54.54,0,0,0-.55.55V16.63a.55.55,0,0,0,.55.56H19a.56.56,0,0,0,.55-.56ZM18,6.22l-6.63,6.43a.21.21,0,0,1-.28,0L4.44,6.22a.2.2,0,0,1,.14-.34H17.84A.2.2,0,0,1,18,6.22Zm-14.47,10V6.93a.2.2,0,0,1,.34-.14l7.08,6.83a.39.39,0,0,0,.26.1.35.35,0,0,0,.25-.1l7-6.83a.2.2,0,0,1,.34.15v9.31a.2.2,0,0,1-.2.21H3.71A.2.2,0,0,1,3.51,16.25Z"/></g></g></svg>