<svg xmlns="http://www.w3.org/2000/svg" viewBox="0 0 22.33 22.33"><defs><style>.cls-1{fill:#fff;}.cls-2{fill:#615b55;fill-rule:evenodd;}</style></defs><title>Phone</title><g id="Layer_2" data-name="Layer 2"><g id="Pin"><circle class="cls-1" cx="11.17" cy="11.17" r="11.17" transform="translate(-1.63 20.42) rotate(-80.87)"/><path class="cls-2" d="M18.35,15.32l-3.1-2h0a.78.78,0,0,0-.43-.11,1,1,0,0,0-.68.28l-.91,1a.2.2,0,0,1-.11.06l-.1,0-.2,0a2.69,2.69,0,0,1-.58-.25,7.79,7.79,0,0,1-.94-.65A11,11,0,0,1,10,12.43a11.37,11.37,0,0,1-1.14-1.38,6.1,6.1,0,0,1-.59-1A3.18,3.18,0,0,1,8,9.21a.34.34,0,0,1,0-.13A.36.36,0,0,1,8.05,9l.78-.85a1.15,1.15,0,0,0,.28-.55A1,1,0,0,0,9,7L7.31,3.45A1.24,1.24,0,0,0,7,3.13.54.54,0,0,0,6.66,3a.68.68,0,0,0-.51.24L4,5.54A1.39,1.39,0,0,0,3.74,6a1.58,1.58,0,0,0-.14.49s0,.14,0,.35a5,5,0,0,0,.06.86A10.63,10.63,0,0,0,4,8.94a11,11,0,0,0,.67,1.68,16.94,16.94,0,0,0,1.19,2,19.44,19.44,0,0,0,1.87,2.28,16.6,16.6,0,0,0,2.66,2.42,14.33,14.33,0,0,0,2.25,1.33,7,7,0,0,0,1.67.55,6,6,0,0,0,1,.11h.3a1.8,1.8,0,0,0,.46-.16,1.27,1.27,0,0,0,.38-.29l2.13-2.29a.8.8,0,0,0,.23-.69A.87.87,0,0,0,18.35,15.32Z"/></g></g></svg>